<svg xmlns="http://www.w3.org/2000/svg" viewBox="0 0 1011 1331" width="1011" height="1331">
	<style>
		tspan { white-space:pre }
		.shp0 { fill: #bea55e } 
		.shp1 { fill: #178848 } 
		.shp2 { fill: #fcea0d } 
		.shp3 { fill: #164193 } 
		.shp4 { fill: #ffffff } 
		.shp5 { fill: #c0af6a;stroke: #1d1d1b;stroke-linecap:round;stroke-linejoin:round;stroke-width: 4.5 } 
		.shp6 { fill: #ae9345;stroke: #1d1d1b;stroke-linecap:round;stroke-linejoin:round;stroke-width: 4.5 } 
		.shp7 { fill: #bea55e;stroke: #1d1d1b;stroke-linecap:round;stroke-linejoin:round;stroke-width: 4.5 } 
		.shp8 { fill: #1d1d1b } 
	</style>
	<g id="Layer">
		<path id="Layer" class="shp0" d="M1010.17 262.2L819.85 30.02C819.85 30.02 752.55 63.84 667.83 59.26C583.12 54.67 505.37 0.78 505.37 0.78C505.37 0.78 427.62 54.67 342.91 59.26C258.2 63.84 190.89 30.02 190.89 30.02L0.58 262.2C0.58 262.2 57.44 384.88 57.44 463.99C57.44 543.1 -2.9 681.84 0.58 798.79C4.06 915.73 49.32 1054.47 165.36 1166.83C281.41 1279.19 474.04 1279.19 505.37 1330.79C536.7 1279.19 729.34 1279.19 845.38 1166.83C961.43 1054.47 1006.69 915.73 1010.17 798.79C1013.65 681.84 953.31 543.1 953.31 463.99C953.31 384.88 1010.17 262.2 1010.17 262.2Z" />
		<path id="Layer" fill-rule="evenodd" class="shp1" d="M505.37 372.39C651.48 372.39 770.64 493.06 770.64 641.02C770.64 788.98 651.48 909.66 505.37 909.66C359.27 909.66 240.11 788.98 240.11 641.02C240.11 493.06 359.27 372.39 505.37 372.39Z" />
		<g id="Layer">
			<path id="Layer" class="shp2" d="M505.37 402.73L563.63 560.84L732 567.39L599.64 671.65L645.44 833.81L505.37 740.14L365.31 833.81L411.1 671.65L278.74 567.39L447.11 560.84L505.37 402.73Z" />
		</g>
		<path id="Layer" fill-rule="evenodd" class="shp3" d="M505.37 526C567.93 526 618.95 577.67 618.95 641.02C618.95 704.38 567.93 756.05 505.37 756.05C442.81 756.05 391.79 704.38 391.79 641.02C391.79 577.67 442.81 526 505.37 526Z" />
		<g id="Layer">
			<path id="Layer" class="shp4" d="M505.37 619.59L511.17 635.31L527.91 635.96L514.75 646.33L519.3 662.46L505.37 653.15L491.44 662.46L496 646.33L482.83 635.96L499.58 635.31L505.37 619.59Z" />
			<path id="Layer" class="shp4" d="M505.37 689.92L511.17 705.65L527.91 706.3L514.75 716.67L519.3 732.79L505.37 723.48L491.44 732.79L496 716.67L482.83 706.3L499.58 705.65L505.37 689.92Z" />
			<path id="Layer" class="shp4" d="M505.37 549.26L511.17 564.98L527.91 565.63L514.75 576L519.3 592.13L505.37 582.81L491.44 592.13L496 576L482.83 565.63L499.58 564.98L505.37 549.26Z" />
			<path id="Layer" class="shp4" d="M575.7 619.59L581.5 635.31L598.24 635.96L585.08 646.33L589.63 662.46L575.7 653.15L561.77 662.46L566.33 646.33L553.16 635.96L569.91 635.31L575.7 619.59Z" />
			<path id="Layer" class="shp4" d="M435.04 619.59L440.83 635.31L457.58 635.96L444.41 646.33L448.97 662.46L435.04 653.15L421.11 662.46L425.66 646.33L412.5 635.96L429.24 635.31L435.04 619.59Z" />
		</g>
		<g id="Layer">
			<path id="Layer" class="shp5" d="M30.8 271.67L95.89 327.19L76.63 452.21C76.63 452.21 158.5 390.46 232.98 362.53C232.98 345.66 232.98 168.36 232.98 168.36C232.98 168.36 105.02 214.55 30.8 271.67Z" />
			<path id="Layer" class="shp5" d="M979.94 271.67L914.85 327.19L934.11 452.21C934.11 452.21 852.24 390.46 777.76 362.53C777.76 345.66 777.76 168.36 777.76 168.36C777.76 168.36 905.73 214.55 979.94 271.67Z" />
			<path id="Layer" class="shp6" d="M140.29 154.9L232.98 168.36L232.98 362.53L140.29 336.91L140.29 154.9Z" />
			<path id="Layer" class="shp6" d="M870.49 154.9L777.8 168.36L777.8 362.53L870.49 336.91L870.49 154.9Z" />
			<path id="Layer" class="shp7" d="M140.29 154.9L140.29 336.91C166.79 324.29 195.83 312.68 226.73 302.36C406.43 242.27 604.34 242.27 784.06 302.36C814.95 312.68 844.01 324.29 870.49 336.91L870.49 154.9C853.74 146.63 717.32 82.77 505.4 82.77C293.46 82.77 157.05 146.63 140.29 154.9Z" />
		</g>
		<g id="Layer">
			<path id="Layer" class="shp5" d="M54.48 891.38C84.21 945.67 130.25 992.06 138.11 999.79L206.98 988.29L206.98 892.11C178.03 858.1 157.41 793.53 150.23 768.68L112.62 874.45L54.48 891.38Z" />
			<path id="Layer" class="shp5" d="M803.76 988.29L872.63 999.79C880.5 992.05 926.55 945.64 956.26 891.38L898.14 874.45L860.51 768.68C853.33 793.53 832.71 858.1 803.76 892.11L803.76 988.29L803.76 988.29Z" />
			<path id="Layer" class="shp6" d="M206.98 892.11L137.02 915.12L137.02 1104.31L206.98 988.29L206.98 892.11Z" />
			<path id="Layer" class="shp6" d="M803.76 892.11L873.73 915.12L873.73 1104.31L803.76 988.29L803.76 892.11Z" />
			<path id="Layer" class="shp7" d="M505.37 1177.69C734.38 1177.69 873.73 1104.31 873.73 1104.31L873.73 915.12C844.25 929.46 813.55 941.56 783.01 951.77C603.12 1011.91 407.62 1011.91 227.74 951.77C197.2 941.56 166.5 929.46 137.02 915.12L137.02 1104.31C137.02 1104.31 276.37 1177.69 505.37 1177.69Z" />
		</g>
		<g id="Layer">
			<g id="Layer">
				<path id="Layer" class="shp8" d="M339.76 1135.53C331.46 1134.08 323.67 1131.11 316.38 1126.65C309.1 1122.2 302.79 1116.65 297.46 1110.08C292.11 1103.51 287.89 1096.14 284.77 1088.01C281.64 1079.87 280.07 1071.46 280.07 1062.79C280.07 1062.65 280.07 1062.58 280.07 1062.45C280.07 1054 281.6 1046.44 284.68 1039.77C287.75 1033.1 291.98 1027.63 297.37 1023.31C302.76 1018.99 309.18 1016.05 316.63 1014.43C324.08 1012.8 332.23 1012.77 341.09 1014.31C347.07 1015.34 352.51 1016.81 357.39 1018.73C362.27 1020.66 366.75 1022.97 370.81 1025.72C374.86 1028.46 378.53 1031.53 381.82 1034.97C385.1 1038.39 388.02 1042.03 390.59 1045.9C380.83 1052.27 375.95 1055.39 366.21 1061.52C362.89 1056.8 359.22 1052.92 355.22 1049.84C351.23 1046.76 346.4 1044.76 340.76 1043.78C336.65 1043.07 332.92 1043.2 329.55 1044.19C326.18 1045.18 323.28 1046.82 320.85 1049.12C318.42 1051.43 316.51 1054.34 315.13 1057.83C313.75 1061.34 313.07 1065.2 313.07 1069.43C313.07 1069.56 313.07 1069.63 313.07 1069.76C313.07 1074.1 313.75 1078.33 315.13 1082.44C316.52 1086.56 318.42 1090.25 320.85 1093.5C323.28 1096.75 326.18 1099.5 329.55 1101.74C332.92 1103.98 336.65 1105.46 340.76 1106.17C343.75 1106.69 346.49 1106.81 348.99 1106.55C351.48 1106.3 353.75 1105.69 355.8 1104.74C357.86 1103.78 359.8 1102.57 361.63 1101.13C363.47 1099.67 365.27 1098.02 367.05 1096.17C376.79 1104.52 381.66 1108.63 391.42 1116.73C388.63 1120.18 385.6 1123.31 382.32 1126.11C379.03 1128.92 375.3 1131.21 371.14 1132.96C366.97 1134.7 362.3 1135.85 357.13 1136.38C351.98 1136.92 346.18 1136.65 339.76 1135.53Z" />
				<path id="Layer" class="shp8" d="M405.97 1025.6C419.02 1026.95 425.55 1027.51 438.64 1028.42C438.64 1075.13 438.64 1098.48 438.64 1145.2C425.55 1144.29 419.02 1143.72 405.97 1142.37C405.97 1095.66 405.97 1072.31 405.97 1025.6Z" />
				<path id="Layer" class="shp8" d="M450.72 1029.18C465.28 1030.01 472.57 1030.28 487.14 1030.56C497.83 1060.32 503.18 1075.13 513.86 1104.6C524.55 1074.94 529.89 1060.04 540.56 1030.09C554.87 1029.57 562.02 1029.17 576.3 1028.12C557.26 1076.57 547.72 1100.56 528.63 1148.06C516.54 1148.35 510.49 1148.4 498.4 1148.31C479.32 1101.13 469.78 1077.31 450.72 1029.18Z" />
				<path id="Layer" class="shp8" d="M588.36 1027.15C601.43 1026.03 607.96 1025.35 620.99 1023.78C620.99 1070.49 620.99 1093.84 620.99 1140.55C607.96 1142.13 601.43 1142.8 588.36 1143.93C588.36 1097.22 588.36 1073.86 588.36 1027.15Z" />
				<path id="Layer" class="shp8" d="M642.36 1020.96C655.29 1019.1 661.75 1018.07 674.63 1015.77C674.63 1051.14 674.63 1068.82 674.63 1104.19C697.15 1100.18 708.36 1097.83 730.67 1092.48C730.67 1103.82 730.67 1109.5 730.67 1120.84C695.6 1129.26 677.9 1132.64 642.36 1137.73C642.36 1091.02 642.36 1067.67 642.36 1020.96Z" />
			</g>
		</g>
		<g id="Layer">
			<path id="Layer" class="shp8" d="M477.75 1272.31C472.13 1272.31 466.8 1271.43 461.74 1269.69C456.69 1267.95 452.22 1265.33 448.34 1261.84L458.02 1250.24C464.3 1255.27 471.08 1257.78 478.38 1257.78C480.71 1257.78 482.49 1257.41 483.72 1256.66C484.94 1255.92 485.55 1254.86 485.55 1253.48L485.55 1253.31C485.55 1252.65 485.4 1252.06 485.1 1251.56C484.8 1251.05 484.25 1250.56 483.45 1250.08C482.64 1249.61 481.56 1249.14 480.22 1248.69C478.87 1248.24 477.12 1247.78 474.97 1247.3C471.62 1246.53 468.52 1245.68 465.65 1244.76C462.77 1243.83 460.28 1242.64 458.16 1241.17C456.03 1239.71 454.36 1237.89 453.14 1235.71C451.91 1233.54 451.3 1230.83 451.3 1227.61L451.3 1227.43C451.3 1224.51 451.85 1221.82 452.95 1219.37C454.06 1216.93 455.68 1214.81 457.79 1213.02C459.92 1211.23 462.47 1209.84 465.46 1208.85C468.45 1207.87 471.83 1207.38 475.6 1207.38C480.98 1207.38 485.78 1208.09 489.99 1209.5C494.21 1210.91 498.02 1213 501.43 1215.77L492.73 1228.09C489.85 1226.06 486.91 1224.52 483.89 1223.48C480.87 1222.43 477.96 1221.91 475.15 1221.91C473.06 1221.91 471.48 1222.3 470.44 1223.07C469.4 1223.84 468.87 1224.8 468.87 1225.93L468.87 1226.11C468.87 1226.83 469.03 1227.46 469.36 1228C469.69 1228.53 470.26 1229.02 471.07 1229.47C471.87 1229.92 472.98 1230.37 474.39 1230.82C475.79 1231.26 477.57 1231.73 479.72 1232.2C483.31 1232.98 486.55 1233.89 489.45 1234.93C492.35 1235.98 494.82 1237.25 496.85 1238.74C498.88 1240.23 500.44 1242.04 501.51 1244.16C502.59 1246.27 503.13 1248.79 503.13 1251.72L503.13 1251.9C503.13 1255.12 502.51 1257.99 501.29 1260.49C500.06 1263 498.34 1265.13 496.14 1266.9C493.92 1268.65 491.26 1270 488.15 1270.92C485.04 1271.84 481.58 1272.31 477.75 1272.31Z" />
			<path id="Layer" class="shp8" d="M511.56 1208.46L561.96 1208.46L561.96 1223.26L528.69 1223.26L528.69 1232.76L558.82 1232.76L558.82 1246.48L528.69 1246.48L528.69 1256.44L562.41 1256.44L562.41 1271.23L511.56 1271.23L511.56 1208.46Z" />
		</g>
		<g id="Layer">
			<g id="Layer">
				<path id="Layer" fill-rule="evenodd" class="shp8" d="M177.41 193.23C195.28 185.83 204.29 182.39 222.45 176.04C229.12 173.71 235.19 172.53 240.67 172.46C246.14 172.38 250.83 173.4 254.69 175.48C258.57 177.55 261.55 180.67 263.65 184.8C265.74 188.94 266.79 194.01 266.79 200.01C266.79 200.13 266.79 200.19 266.79 200.32C266.79 206.73 265.64 212.69 263.34 218.22C261.05 223.76 257.85 228.79 253.78 233.35C249.71 237.91 244.85 241.91 239.22 245.4C233.59 248.9 227.5 251.78 220.94 254.08C215.14 256.13 212.24 257.17 206.46 259.32C206.46 271.73 206.46 277.93 206.46 290.33C194.78 294.68 188.97 296.96 177.41 301.75C177.41 258.34 177.41 236.64 177.41 193.23ZM220.34 230.73C225.58 228.88 229.7 226.21 232.68 222.66C235.67 219.12 237.17 215.17 237.17 210.81C237.17 210.68 237.17 210.62 237.17 210.5C237.17 205.82 235.67 202.75 232.68 201.31C229.7 199.87 225.53 200.07 220.19 201.95C214.68 203.89 211.94 204.89 206.46 206.93C206.46 218.46 206.46 224.23 206.46 235.76C212 233.7 214.77 232.7 220.34 230.73Z" />
				<path id="Layer" fill-rule="evenodd" class="shp8" d="M333.86 256.02C325.46 257.74 317.69 257.98 310.56 256.7C303.44 255.41 297.3 252.92 292.17 249.19C287.03 245.45 282.99 240.59 280.07 234.57C277.14 228.54 275.69 221.66 275.69 213.91C275.69 213.79 275.69 213.73 275.69 213.6C275.69 205.85 277.14 198.13 280.07 190.46C282.99 182.79 287.07 175.7 292.32 169.24C297.56 162.78 303.75 157.21 310.88 152.6C318 147.99 325.76 144.81 334.17 143.09C342.57 141.38 350.38 141.39 357.57 143.08C364.76 144.77 370.96 147.78 376.19 152.05C381.41 156.31 385.52 161.68 388.51 168.09C391.49 174.5 392.98 181.59 392.98 189.34C392.98 189.47 392.98 189.53 392.98 189.65C392.98 197.4 391.49 204.91 388.5 212.19C385.52 219.48 381.36 226.06 376.03 231.98C370.71 237.91 364.44 242.95 357.25 247.16C350.06 251.37 342.27 254.3 333.86 256.02ZM334.09 228.84C338.25 227.99 342.05 226.47 345.5 224.27C348.94 222.07 351.86 219.44 354.26 216.37C356.66 213.31 358.54 209.91 359.91 206.16C361.26 202.41 361.94 198.58 361.94 194.65C361.94 194.52 361.94 194.46 361.94 194.34C361.94 190.41 361.27 186.8 359.91 183.53C358.55 180.25 356.61 177.48 354.11 175.24C351.6 173 348.63 171.41 345.18 170.46C341.75 169.51 337.94 169.45 333.78 170.31C329.62 171.15 325.85 172.73 322.47 175.02C319.1 177.31 316.2 180.06 313.76 183.25C311.32 186.44 309.46 189.96 308.16 193.78C306.88 197.59 306.22 201.47 306.22 205.4C306.22 205.53 306.22 205.59 306.22 205.71C306.22 209.64 306.9 213.2 308.25 216.39C309.59 219.59 311.48 222.24 313.92 224.37C316.35 226.5 319.28 227.99 322.71 228.84C326.13 229.7 329.93 229.69 334.09 228.84Z" />
				<path id="Layer" class="shp8" d="M408.86 133.45C421.07 132.06 427.19 131.48 439.43 130.54C439.43 163.4 439.43 179.83 439.43 212.7C460.82 211.05 471.54 210.56 492.97 210.25C492.97 220.79 492.97 226.06 492.97 236.6C459.27 237.09 442.4 238.16 408.86 241.96C408.86 198.55 408.86 176.85 408.86 133.45Z" />
				<path id="Layer" class="shp8" d="M506.72 128C519.06 128.02 525.22 128.14 537.55 128.6C537.55 172.01 537.55 193.71 537.55 237.12C525.22 236.65 519.06 236.53 506.72 236.51C506.72 193.11 506.72 171.4 506.72 128ZM526.49 92.29C537.68 96.1 543.27 98.1 554.45 102.27C545.17 109.68 540.52 113.44 531.23 121.1C522.76 120.84 518.52 120.77 510.05 120.72C516.62 109.29 519.91 103.6 526.49 92.29Z" />
				<path id="Layer" class="shp8" d="M610.86 245.2C603 244.22 595.6 242.02 588.67 238.55C581.74 235.09 575.72 230.68 570.63 225.28C565.52 219.88 561.47 213.67 558.47 206.61C555.47 199.55 553.98 192 553.98 183.94C553.98 183.82 553.98 183.76 553.98 183.63C553.98 175.78 555.45 168.49 558.39 161.81C561.34 155.11 565.39 149.39 570.54 144.66C575.69 139.94 581.82 136.45 588.91 134.25C596 132.05 603.73 131.44 612.12 132.5C617.77 133.2 622.9 134.45 627.5 136.2C632.1 137.94 636.31 140.14 640.11 142.76C643.92 145.38 647.37 148.36 650.45 151.68C653.52 155 656.26 158.53 658.65 162.27C649.53 167.62 644.96 170.36 635.81 175.96C632.67 171.55 629.22 167.94 625.46 165.13C621.7 162.32 617.14 160.57 611.8 159.9C607.92 159.41 604.39 159.75 601.18 160.88C597.98 162.02 595.23 163.77 592.93 166.12C590.62 168.46 588.81 171.34 587.49 174.73C586.17 178.11 585.52 181.77 585.52 185.7C585.52 185.82 585.52 185.89 585.52 186.01C585.52 190.04 586.17 193.9 587.49 197.59C588.81 201.28 590.62 204.54 592.93 207.36C595.23 210.18 597.98 212.51 601.18 214.37C604.39 216.23 607.92 217.39 611.8 217.88C614.63 218.23 617.22 218.26 619.57 217.95C621.93 217.65 624.07 217.05 626.01 216.13C627.94 215.22 629.78 214.09 631.49 212.75C633.22 211.4 634.92 209.88 636.59 208.17C645.74 216.04 650.31 220.04 659.43 228.15C656.82 231.19 653.99 233.94 650.91 236.4C647.84 238.87 644.35 240.87 640.43 242.42C636.51 243.96 632.13 244.99 627.26 245.53C622.41 246.07 616.94 245.95 610.86 245.2Z" />
				<path id="Layer" class="shp8" d="M672.99 144.54C685.14 146.97 691.2 148.29 703.28 151.16C703.28 194.56 703.28 216.27 703.28 259.67C691.2 256.81 685.14 255.48 672.99 253.06C672.99 209.65 672.99 187.95 672.99 144.54Z" />
				<path id="Layer" fill-rule="evenodd" class="shp8" d="M760.17 165.97C771.59 169.53 777.28 171.41 788.6 175.37C806.63 225.4 815.58 250.68 833.33 301.75C820.94 296.62 814.71 294.18 802.18 289.55C799.11 280.66 797.57 276.23 794.49 267.37C778.18 261.53 769.97 258.82 753.45 253.82C750.39 260.65 748.86 264.07 745.79 270.92C733.29 267.27 727.01 265.56 714.41 262.39C732.82 223.31 741.98 204.02 760.17 165.97ZM786.02 241.14C781.3 227.16 778.93 220.19 774.19 206.28C769.38 217.03 766.98 222.43 762.15 233.25C771.74 236.26 776.51 237.84 786.02 241.14Z" />
			</g>
		</g>
	</g>
</svg>